<!-- icon666.com - MILLIONS vector ICONS FREE --><svg clip-rule="evenodd" fill-rule="evenodd" stroke-linejoin="round" stroke-miterlimit="2" viewBox="0 0 67 67" xmlns="http://www.w3.org/2000/svg"><g id="Layer1"><path d="m9.375 25.923v30.327c0 1.151.933 2.083 2.083 2.083h43.75c1.151 0 2.084-.932 2.084-2.083v-30.327l3.997 2.856c.936.668 2.238.451 2.906-.485.669-.935.452-2.238-.484-2.906l-29.167-20.833c-.724-.518-1.697-.518-2.422 0l-29.166 20.833c-.936.668-1.153 1.971-.485 2.906.669.936 1.971 1.153 2.907.485zm4.167-2.976v31.22h9.375v-16.667c0-1.151.932-2.083 2.083-2.083h16.667c1.15 0 2.083.932 2.083 2.083v16.667h9.375v-31.22l-19.792-14.137zm26.041 31.22v-14.584h-12.5v14.584zm-10.416-29.167h8.333c1.15 0 2.083-.934 2.083-2.083 0-1.15-.933-2.084-2.083-2.084h-8.333c-1.15 0-2.084.934-2.084 2.084 0 1.149.934 2.083 2.084 2.083z"></path></g></svg>