<?xml version="1.0" ?><svg xmlns="http://www.w3.org/2000/svg" xmlns:xlink="http://www.w3.org/1999/xlink" version="1.0" viewBox="0 0 48 48" enable-background="new 0 0 48 48" xml:space="preserve"><g id="Layer_1"/><g id="_x32_1_x5F_Trophy"><path d="M13,10h22c1.654,0,3-1.346,3-3V6c0-0.552-0.447-1-1-1H11c-0.552,0-1,0.448-1,1v1C10,8.654,11.346,10,13,10z M36,7   c0,0.551-0.448,1-1,1H13c-0.551,0-1-0.449-1-1H36z M42,15v5c0,3.514-2.35,6.667-5.715,7.668C36.19,27.696,36.094,27.71,36,27.71   c-0.432,0-0.829-0.28-0.958-0.715c-0.158-0.529,0.144-1.086,0.673-1.243C38.238,25.001,40,22.636,40,20v-5c0-0.551-0.448-1-1-1h-4   v6c0,6.065-4.935,11-11,11s-11-4.935-11-11v-6H9c-0.551,0-1,0.449-1,1v5c0,2.636,1.762,5.001,4.285,5.752   c0.529,0.157,0.831,0.714,0.673,1.243C12.829,27.43,12.431,27.71,12,27.71c-0.095,0-0.19-0.014-0.286-0.042   C8.35,26.667,6,23.514,6,20v-5c0-1.654,1.346-3,3-3h5c0.552,0,1,0.448,1,1v7c0,4.962,4.038,9,9,9c4.963,0,9-4.038,9-9v-7   c0-0.552,0.447-1,1-1h5C40.654,12,42,13.346,42,15z M34,39v1c0,0.553-0.447,1-1,1H15c-0.552,0-1-0.447-1-1v-1c0-1.654,1.346-3,3-3   h4v-2c0-0.553,0.448-1,1-1s1,0.447,1,1v3c0,0.553-0.448,1-1,1h-5c-0.551,0-1,0.448-1,1h16c0-0.552-0.448-1-1-1h-5   c-0.553,0-1-0.447-1-1v-3c0-0.553,0.447-1,1-1s1,0.447,1,1v2h4C32.654,36,34,37.346,34,39z M28.749,17.905l-2.463,1.782   l1.125,2.829c0.181,0.455-0.333,0.872-0.741,0.601L24,21.348l-2.669,1.77c-0.408,0.271-0.922-0.146-0.741-0.601l1.125-2.829   l-2.463-1.782C18.858,17.621,19.059,17,19.544,17h3.043l0.941-2.665c0.157-0.445,0.786-0.445,0.943,0L25.413,17h3.043   C28.941,17,29.142,17.621,28.749,17.905z"/></g></svg>